<svg width="227" height="227" viewBox="0 0 227 227" fill="none" xmlns="http://www.w3.org/2000/svg">
<path fill-rule="evenodd" clip-rule="evenodd" d="M226.209 113.5C226.209 175.748 175.747 226.21 113.499 226.21C51.251 226.21 0.789062 175.748 0.789062 113.5C0.789062 51.252 51.251 0.790039 113.499 0.790039C175.747 0.790039 226.209 51.252 226.209 113.5ZM124.664 100.781C124.664 105.09 122.314 108.847 118.832 110.831L123.426 137.563C123.426 137.631 123.358 137.767 123.291 137.767H103.373C103.305 137.767 103.237 137.631 103.237 137.563L107.651 110.913C104.089 108.951 101.674 105.149 101.674 100.781C101.674 95.4903 105.216 91.0309 110.047 89.6644V64.1399C84.2125 65.8883 63.8386 87.5781 64.0674 113.801C64.3049 141.009 86.6334 162.951 113.841 162.714C141.049 162.476 162.99 140.148 162.753 112.94C162.641 100.102 157.609 88.4378 149.468 79.7214L152.361 76.1786C161.499 85.7431 167.167 98.6601 167.292 112.9C167.551 142.611 143.591 166.993 113.88 167.252C105.989 167.321 98.4743 165.682 91.6872 162.68L88.1599 170.689C96.0493 174.18 104.783 176.09 113.957 176.01C135.564 175.821 154.555 164.657 165.673 147.867L169.629 150.106C157.73 168.257 137.281 180.346 113.996 180.549C107.209 180.608 100.647 179.651 94.4511 177.824L91.6007 187.951C98.7329 190.041 106.282 191.137 114.088 191.069C127.428 190.952 139.964 187.462 150.892 181.419L153.197 185.332C141.604 191.767 128.294 195.484 114.128 195.608C76.6329 195.935 44.7001 170.988 34.5424 136.705L23.9225 139.846C34.8277 176.657 67.8482 203.985 107.414 206.505L107.453 211.054C83.8635 209.65 61.8328 199.894 44.8162 183.172C27.5708 166.225 17.3914 144.003 15.7792 120.078L20.3288 120.039C20.7032 125.314 21.5218 130.466 22.7389 135.463L33.3752 132.317C31.9888 126.458 31.2273 120.358 31.1726 114.089C31.0707 102.411 33.4261 91.2742 37.7463 81.1647L41.7209 83.4133C37.7666 92.8391 35.6169 103.197 35.7116 114.049C36.0034 147.49 57.4893 175.879 87.2796 186.55L90.139 176.391C84.9199 174.456 80.0015 171.892 75.48 168.788L78.2965 165.216C80.1542 166.478 82.0834 167.642 84.0753 168.702L87.615 160.665C71.0384 151.587 59.7044 134.045 59.5281 113.841C59.2773 85.1017 81.6896 61.3477 110.047 59.5916V7.64572C110.047 5.99591 111.384 4.65848 113.034 4.65848C114.684 4.65848 116.021 5.99591 116.021 7.64572V9.59221L141.187 19.4874C156.399 23.9656 170.373 32.1407 182.004 43.5702C198.79 60.0664 208.884 81.5605 210.896 104.758L206.338 104.798C202.967 67.9731 178.147 37.3407 144.597 25.4067L127.629 32.3639C155.649 37.27 178.88 56.4232 189.474 82.1095L185.262 83.8017C174.338 57.3518 149.23 38.2421 119.543 35.9128L119.541 35.6802L116.021 37.1233V46.2406C151.599 47.6046 180.274 76.8147 180.588 112.785C180.631 117.761 180.127 122.616 179.136 127.294L189.207 130.501C190.501 124.775 191.161 118.813 191.108 112.693C191.06 107.257 190.45 101.954 189.338 96.8392L193.604 95.1257C194.887 100.77 195.594 106.634 195.647 112.654C195.827 133.299 188.343 152.256 175.858 166.822L184.178 174.134C197.208 158.975 205.46 139.611 206.593 118.413V118.413L211.143 118.373C209.949 142.322 200.159 164.719 183.212 181.964C166.49 198.98 144.632 209.119 121.071 210.934L121.031 206.382C144.665 204.462 165.802 193.709 181.172 177.463L172.849 170.148C170.254 172.863 167.476 175.403 164.533 177.745L162.206 173.793C175.018 163.426 184.472 149.079 188.684 132.67L187.983 134.874L178.04 131.708C177.43 133.853 176.718 135.957 175.906 138.01L171.917 135.754C174.651 128.635 176.12 120.899 176.049 112.824C175.827 87.3473 160.344 65.5141 138.374 55.9298L135.258 64.1196C137.523 65.1287 139.706 66.2895 141.795 67.5892L138.898 71.1359C132.149 67.0481 124.353 64.5306 116.021 64.0942V89.5916C120.99 90.8661 124.664 95.3924 124.664 100.781ZM131.035 62.4511C126.292 60.8036 121.252 59.8009 116.021 59.5499V50.7884C122.346 51.0495 128.434 52.2568 134.149 54.268L131.035 62.4511ZM54.727 40.8576L61.7255 49.4538C54.8578 55.0173 48.9027 61.6623 44.1209 69.1253L48.0769 71.3634C56.5077 58.2959 68.7511 47.9019 83.2365 41.7761L86.8555 51.6661C62.7842 62.0627 45.9895 86.1347 46.2323 113.958C46.3883 131.833 53.5495 148.037 65.0797 159.986L67.9187 156.386C57.4188 145.289 50.9149 130.363 50.7713 113.918C50.5088 83.8336 71.609 58.4521 99.8805 52.2052L99.0595 47.7366C96.3347 48.3316 93.6734 49.095 91.0832 50.0102L87.4685 40.1319C93.3297 38.0507 99.514 36.6528 105.927 36.0366L105.887 31.4835C98.3426 32.1713 91.0944 33.8822 84.2782 36.4717L81.648 37.434L81.6759 37.5097C75.1058 40.267 68.9698 43.8541 63.3967 48.1367L65.2671 46.6138L58.3247 38.0864C71.8393 28.1686 88.1162 21.7911 105.79 20.3557L105.75 15.8074C87.3981 17.2215 70.0808 23.6864 55.418 34.5165L55.3662 34.4528L53.5921 35.8972C50.0973 38.6068 46.7617 41.5698 43.6089 44.7781C27.1127 61.5648 17.3954 83.2317 15.7884 106.461L20.3468 106.421C22.298 80.0345 35.2844 56.6263 54.727 40.8576ZM106.772 79.4963C104.847 79.8742 102.929 80.4118 101.036 81.1384C83.2626 87.9609 74.3535 107.971 81.1764 125.743C87.9989 143.517 108.009 152.426 125.782 145.603C143.555 138.781 152.464 118.771 145.641 100.998C141.276 89.6264 131.511 81.8934 120.39 79.5777L120.444 74.9568C133.385 77.3487 144.827 86.2111 149.879 99.371C157.598 119.481 147.518 142.121 127.408 149.841C107.299 157.56 84.6582 147.48 76.9387 127.37C69.2193 107.26 79.2994 84.6201 99.4094 76.9006C101.855 75.9619 104.338 75.2913 106.827 74.865L106.772 79.4963Z" fill="white"/>
<path fill-rule="evenodd" clip-rule="evenodd" d="M226.209 113.5C226.209 175.748 175.747 226.21 113.499 226.21C51.251 226.21 0.789062 175.748 0.789062 113.5C0.789062 51.252 51.251 0.790039 113.499 0.790039C175.747 0.790039 226.209 51.252 226.209 113.5ZM124.664 100.781C124.664 105.09 122.314 108.847 118.832 110.831L123.426 137.563C123.426 137.631 123.358 137.767 123.291 137.767H103.373C103.305 137.767 103.237 137.631 103.237 137.563L107.651 110.913C104.089 108.951 101.674 105.149 101.674 100.781C101.674 95.4903 105.216 91.0309 110.047 89.6644V64.1399C84.2125 65.8883 63.8386 87.5781 64.0674 113.801C64.3049 141.009 86.6334 162.951 113.841 162.714C141.049 162.476 162.99 140.148 162.753 112.94C162.641 100.102 157.609 88.4378 149.468 79.7214L152.361 76.1786C161.499 85.7431 167.167 98.6601 167.292 112.9C167.551 142.611 143.591 166.993 113.88 167.252C105.989 167.321 98.4743 165.682 91.6872 162.68L88.1599 170.689C96.0493 174.18 104.783 176.09 113.957 176.01C135.564 175.821 154.555 164.657 165.673 147.867L169.629 150.106C157.73 168.257 137.281 180.346 113.996 180.549C107.209 180.608 100.647 179.651 94.4511 177.824L91.6007 187.951C98.7329 190.041 106.282 191.137 114.088 191.069C127.428 190.952 139.964 187.462 150.892 181.419L153.197 185.332C141.604 191.767 128.294 195.484 114.128 195.608C76.6329 195.935 44.7001 170.988 34.5424 136.705L23.9225 139.846C34.8277 176.657 67.8482 203.985 107.414 206.505L107.453 211.054C83.8635 209.65 61.8328 199.894 44.8162 183.172C27.5708 166.225 17.3914 144.003 15.7792 120.078L20.3288 120.039C20.7032 125.314 21.5218 130.466 22.7389 135.463L33.3752 132.317C31.9888 126.458 31.2273 120.358 31.1726 114.089C31.0707 102.411 33.4261 91.2742 37.7463 81.1647L41.7209 83.4133C37.7666 92.8391 35.6169 103.197 35.7116 114.049C36.0034 147.49 57.4893 175.879 87.2796 186.55L90.139 176.391C84.9199 174.456 80.0015 171.892 75.48 168.788L78.2965 165.216C80.1542 166.478 82.0834 167.642 84.0753 168.702L87.615 160.665C71.0384 151.587 59.7044 134.045 59.5281 113.841C59.2773 85.1017 81.6896 61.3477 110.047 59.5916V7.64572C110.047 5.99591 111.384 4.65848 113.034 4.65848C114.684 4.65848 116.021 5.99591 116.021 7.64572V9.59221L141.187 19.4874C156.399 23.9656 170.373 32.1407 182.004 43.5702C198.79 60.0664 208.884 81.5605 210.896 104.758L206.338 104.798C202.967 67.9731 178.147 37.3407 144.597 25.4067L127.629 32.3639C155.649 37.27 178.88 56.4232 189.474 82.1095L185.262 83.8017C174.338 57.3518 149.23 38.2421 119.543 35.9128L119.541 35.6802L116.021 37.1233V46.2406C151.599 47.6046 180.274 76.8147 180.588 112.785C180.631 117.761 180.127 122.616 179.136 127.294L189.207 130.501C190.501 124.775 191.161 118.813 191.108 112.693C191.06 107.257 190.45 101.954 189.338 96.8392L193.604 95.1257C194.887 100.77 195.594 106.634 195.647 112.654C195.827 133.299 188.343 152.256 175.858 166.822L184.178 174.134C197.208 158.975 205.46 139.611 206.593 118.413V118.413L211.143 118.373C209.949 142.322 200.159 164.719 183.212 181.964C166.49 198.98 144.632 209.119 121.071 210.934L121.031 206.382C144.665 204.462 165.802 193.709 181.172 177.463L172.849 170.148C170.254 172.863 167.476 175.403 164.533 177.745L162.206 173.793C175.018 163.426 184.472 149.079 188.684 132.67L187.983 134.874L178.04 131.708C177.43 133.853 176.718 135.957 175.906 138.01L171.917 135.754C174.651 128.635 176.12 120.899 176.049 112.824C175.827 87.3473 160.344 65.5141 138.374 55.9298L135.258 64.1196C137.523 65.1287 139.706 66.2895 141.795 67.5892L138.898 71.1359C132.149 67.0481 124.353 64.5306 116.021 64.0942V89.5916C120.99 90.8661 124.664 95.3924 124.664 100.781ZM131.035 62.4511C126.292 60.8036 121.252 59.8009 116.021 59.5499V50.7884C122.346 51.0495 128.434 52.2568 134.149 54.268L131.035 62.4511ZM54.727 40.8576L61.7255 49.4538C54.8578 55.0173 48.9027 61.6623 44.1209 69.1253L48.0769 71.3634C56.5077 58.2959 68.7511 47.9019 83.2365 41.7761L86.8555 51.6661C62.7842 62.0627 45.9895 86.1347 46.2323 113.958C46.3883 131.833 53.5495 148.037 65.0797 159.986L67.9187 156.386C57.4188 145.289 50.9149 130.363 50.7713 113.918C50.5088 83.8336 71.609 58.4521 99.8805 52.2052L99.0595 47.7366C96.3347 48.3316 93.6734 49.095 91.0832 50.0102L87.4685 40.1319C93.3297 38.0507 99.514 36.6528 105.927 36.0366L105.887 31.4835C98.3426 32.1713 91.0944 33.8822 84.2782 36.4717L81.648 37.434L81.6759 37.5097C75.1058 40.267 68.9698 43.8541 63.3967 48.1367L65.2671 46.6138L58.3247 38.0864C71.8393 28.1686 88.1162 21.7911 105.79 20.3557L105.75 15.8074C87.3981 17.2215 70.0808 23.6864 55.418 34.5165L55.3662 34.4528L53.5921 35.8972C50.0973 38.6068 46.7617 41.5698 43.6089 44.7781C27.1127 61.5648 17.3954 83.2317 15.7884 106.461L20.3468 106.421C22.298 80.0345 35.2844 56.6263 54.727 40.8576ZM106.772 79.4963C104.847 79.8742 102.929 80.4118 101.036 81.1384C83.2626 87.9609 74.3535 107.971 81.1764 125.743C87.9989 143.517 108.009 152.426 125.782 145.603C143.555 138.781 152.464 118.771 145.641 100.998C141.276 89.6264 131.511 81.8934 120.39 79.5777L120.444 74.9568C133.385 77.3487 144.827 86.2111 149.879 99.371C157.598 119.481 147.518 142.121 127.408 149.841C107.299 157.56 84.6582 147.48 76.9387 127.37C69.2193 107.26 79.2994 84.6201 99.4094 76.9006C101.855 75.9619 104.338 75.2913 106.827 74.865L106.772 79.4963Z" fill="url(#paint0_linear_1379_865)"/>
<defs>
<linearGradient id="paint0_linear_1379_865" x1="113.499" y1="0.790039" x2="113.499" y2="226.21" gradientUnits="userSpaceOnUse">
<stop stop-color="#0D0419" stop-opacity="0"/>
<stop offset="1" stop-color="#6334A1"/>
</linearGradient>
</defs>
</svg>
